<?xml version="1.0" standalone="no"?>
<!DOCTYPE svg PUBLIC "-//W3C//DTD SVG 20010904//EN"
 "http://www.w3.org/TR/2001/REC-SVG-20010904/DTD/svg10.dtd">
<svg version="1.0" xmlns="http://www.w3.org/2000/svg"
 width="250.000000pt" height="250.000000pt" viewBox="0 0 250.000000 250.000000"
 preserveAspectRatio="xMidYMid meet">
<metadata>
Created by potrace 1.14, written by Peter Selinger 2001-2017
</metadata>
<g transform="translate(0.000000,250.000000) scale(0.100000,-0.100000)"
fill="#000000" stroke="none">
<path d="M1199 2426 c-2 -3 -31 -7 -64 -11 -116 -13 -154 -21 -259 -56 -175
-58 -313 -145 -452 -283 -291 -290 -407 -695 -314 -1092 111 -472 502 -829
981 -894 89 -12 285 -12 334 1 17 4 48 10 69 14 57 8 206 60 278 96 333 168
568 484 633 854 20 115 18 309 -6 424 -82 401 -366 732 -748 871 -44 16 -90
32 -103 34 -127 26 -176 33 -248 35 -46 1 -87 4 -91 6 -3 3 -8 3 -10 1z"/>
</g>
</svg>
